<svg width="310" height="62" viewBox="0 0 310 62" fill="none" xmlns="http://www.w3.org/2000/svg">
<g clip-path="url(#clip0_3_100)">
<path d="M280.002 46.1904C280.002 46.8577 279.872 47.4844 279.611 48.0703C279.367 48.6562 279.025 49.1689 278.586 49.6084C278.163 50.0316 277.658 50.3734 277.072 50.6338C276.486 50.8779 275.86 51 275.192 51H261.789V61.498H257.004V24.999H261.789V29.3936C261.838 28.7751 262.001 28.2054 262.277 27.6846C262.554 27.1475 262.904 26.6836 263.327 26.293C263.75 25.8861 264.239 25.5687 264.792 25.3408C265.362 25.113 265.964 24.999 266.599 24.999H275.192C275.86 24.999 276.486 25.1292 277.072 25.3896C277.658 25.6338 278.163 25.9756 278.586 26.415C279.025 26.8382 279.367 27.3428 279.611 27.9287C279.872 28.5146 280.002 29.1413 280.002 29.8086V46.1904ZM275.192 46.1904V29.8086H261.789V46.1904H275.192ZM310.007 40.4531H292.795V46.1904H310.007V51H292.795C292.144 51 291.525 50.8779 290.939 50.6338C290.354 50.3734 289.841 50.0316 289.401 49.6084C288.978 49.1689 288.636 48.6562 288.376 48.0703C288.132 47.4844 288.01 46.8577 288.01 46.1904V29.8086C288.01 29.1413 288.132 28.5146 288.376 27.9287C288.636 27.3428 288.978 26.8382 289.401 26.415C289.841 25.9756 290.354 25.6338 290.939 25.3896C291.525 25.1292 292.144 24.999 292.795 24.999H305.197C305.865 24.999 306.491 25.1292 307.077 25.3896C307.663 25.6338 308.168 25.9756 308.591 26.415C309.03 26.8382 309.372 27.3428 309.616 27.9287C309.877 28.5146 310.007 29.1413 310.007 29.8086V40.4531ZM292.795 29.8086V35.6436H305.197V29.8086H292.795Z" fill="white"/>
<path d="M232 36.5C232 36.0404 232.091 35.5852 232.266 35.1606C232.442 34.736 232.7 34.3501 233.025 34.0251C233.35 33.7001 233.736 33.4423 234.161 33.2664C234.585 33.0905 235.04 33 235.5 33C235.96 33 236.415 33.0905 236.839 33.2664C237.264 33.4423 237.65 33.7001 237.975 34.0251C238.3 34.3501 238.558 34.736 238.734 35.1606C238.909 35.5852 239 36.0404 239 36.5C239 37.4283 238.631 38.3185 237.975 38.9749C237.318 39.6313 236.428 40 235.5 40C234.572 40 233.682 39.6313 233.025 38.9749C232.369 38.3185 232 37.4283 232 36.5Z" fill="white"/>
<path fill-rule="evenodd" clip-rule="evenodd" d="M237 25C229.82 25 224 30.82 224 38C224 45.18 229.82 51 237 51C244.18 51 250 45.18 250 38C250 30.82 244.18 25 237 25ZM235.5 31C234.638 31.0002 233.788 31.2029 233.019 31.5918C232.25 31.9807 231.583 32.545 231.072 33.239C230.561 33.9331 230.22 34.7375 230.077 35.5874C229.934 36.4374 229.993 37.309 230.249 38.1321C230.505 38.9551 230.95 39.7066 231.55 40.3258C232.149 40.945 232.886 41.4146 233.7 41.6968C234.515 41.979 235.384 42.0659 236.238 41.9504C237.092 41.8349 237.907 41.5203 238.617 41.032L241.293 43.7067C241.385 43.8049 241.495 43.8837 241.618 43.9384C241.741 43.993 241.873 44.0224 242.007 44.0248C242.142 44.0272 242.275 44.0025 242.399 43.9522C242.524 43.9019 242.637 43.827 242.732 43.7321C242.827 43.6371 242.902 43.524 242.952 43.3995C243.002 43.2749 243.027 43.1416 243.025 43.0073C243.022 42.873 242.993 42.7406 242.938 42.6179C242.884 42.4953 242.805 42.3849 242.707 42.2933L240.032 39.6173C240.6 38.7915 240.932 37.8261 240.991 36.8255C241.05 35.8249 240.835 34.8271 240.369 33.9399C239.902 33.0527 239.202 32.31 238.344 31.7918C237.486 31.2737 236.502 30.9999 235.5 31Z" fill="white"/>
<path d="M164.497 36.0098C163.813 36.0098 163.162 35.8796 162.544 35.6191C161.942 35.3424 161.413 34.9844 160.957 34.5449C160.501 34.0892 160.143 33.5602 159.883 32.958C159.622 32.3395 159.492 31.6885 159.492 31.0049V20.9951C159.492 20.3115 159.622 19.6686 159.883 19.0664C160.143 18.4479 160.501 17.9189 160.957 17.4795C161.413 17.0238 161.942 16.6657 162.544 16.4053C163.162 16.1286 163.813 15.9902 164.497 15.9902H181.489C182.173 15.9902 182.816 16.1286 183.418 16.4053C184.036 16.6657 184.574 17.0238 185.029 17.4795C185.485 17.9189 185.843 18.4479 186.104 19.0664C186.364 19.6686 186.494 20.3115 186.494 20.9951V25.5117H181.489V20.9951H164.497V31.0049H181.489C182.173 31.0049 182.816 31.1351 183.418 31.3955C184.036 31.6559 184.574 32.014 185.029 32.4697C185.485 32.9255 185.843 33.4626 186.104 34.0811C186.364 34.6833 186.494 35.3262 186.494 36.0098V45.9951C186.494 46.6787 186.364 47.3298 186.104 47.9482C185.843 48.5505 185.485 49.0794 185.029 49.5352C184.574 49.9909 184.036 50.349 183.418 50.6094C182.816 50.8698 182.173 51 181.489 51H164.009C163.325 51 162.674 50.8698 162.056 50.6094C161.453 50.349 160.924 49.9909 160.469 49.5352C160.013 49.0794 159.655 48.5505 159.395 47.9482C159.134 47.3298 159.004 46.6787 159.004 45.9951V41.5029H164.009V45.9951H181.489V36.0098H164.497ZM199.824 29.8086V46.1904H212.227V41.7959H217.036V46.1904C217.036 46.8577 216.906 47.4844 216.646 48.0703C216.401 48.6562 216.06 49.1689 215.62 49.6084C215.197 50.0316 214.692 50.3734 214.106 50.6338C213.521 50.8779 212.894 51 212.227 51H199.824C199.173 51 198.555 50.8779 197.969 50.6338C197.383 50.3734 196.87 50.0316 196.431 49.6084C196.007 49.1689 195.666 48.6562 195.405 48.0703C195.161 47.4844 195.039 46.8577 195.039 46.1904V29.8086C195.039 29.1413 195.161 28.5146 195.405 27.9287C195.666 27.3428 196.007 26.8382 196.431 26.415C196.87 25.9756 197.383 25.6338 197.969 25.3896C198.555 25.1292 199.173 24.999 199.824 24.999H212.227C212.894 24.999 213.521 25.1292 214.106 25.3896C214.692 25.6338 215.197 25.9756 215.62 26.415C216.06 26.8382 216.401 27.3428 216.646 27.9287C216.906 28.5146 217.036 29.1413 217.036 29.8086V34.2031H212.227V29.8086H199.824Z" fill="white"/>
<path d="M74.8174 15.8438H76.5752V51H74.8174V15.8438ZM71.3018 15.8438H73.0596V51H71.3018V15.8438ZM67.7861 15.8438H69.5439V51H67.7861V15.8438ZM64.2705 15.8438H66.0283V51H64.2705V15.8438ZM108.899 36.8154L107.142 33.6172V15.8438H108.899V36.8154ZM112.415 42.8945L110.657 39.916V15.8438H112.415V42.8945ZM88.1963 30.0283L89.9541 33.2266V51H88.1963V30.0283ZM84.6807 23.7051L86.4385 26.9277V51H84.6807V23.7051ZM85.291 15.8438H87.3418L107.703 51H105.652L85.291 15.8438ZM89.4414 15.8438H91.5166L111.854 51H109.754L89.4414 15.8438ZM93.5674 15.8438H95.6182L114.173 47.9482V15.8438H115.931V51H113.855L93.5674 15.8438ZM82.9229 18.8711V51H81.165V15.8438H83.2646L103.553 51H101.526L82.9229 18.8711ZM129.31 51H127.552V15.8438H129.31V51ZM125.794 51H124.036V15.8438H125.794V51ZM122.278 51H120.521V15.8438H122.278V51ZM132.825 42.2109H149.646V43.9688H132.825V45.7266H149.646V47.4844H132.825V49.2422H149.646V51H131.067V15.8438H149.646V17.6016H132.825V19.3594H149.646V21.1172H132.825V22.875H149.646V24.6328H132.825V29.0029H148.67V30.7607H132.825V32.5186H148.67V34.2764H132.825V36.0342H148.67V37.792H132.825V42.2109Z" fill="white"/>
<path d="M43.5918 21.8086L41.6328 23.1035C40.4375 21.3327 38.877 19.9382 36.9512 18.9199C35.0475 17.8796 32.9779 17.3594 30.7422 17.3594C27.112 17.3594 24.013 18.6432 21.4453 21.2109C18.8776 23.7786 17.5938 26.8776 17.5938 30.5078C17.5938 34.138 18.8776 37.237 21.4453 39.8047C24.013 42.3724 27.112 43.6562 30.7422 43.6562C32.9779 43.6562 35.0475 43.1361 36.9512 42.0957C38.877 41.0553 40.4375 39.6497 41.6328 37.8789L43.5586 39.2734C42.1419 41.3542 40.3047 43.0033 38.0469 44.2207C35.7891 45.4382 33.3542 46.0469 30.7422 46.0469C28.6393 46.0469 26.625 45.6374 24.6992 44.8184C22.7956 43.9993 21.1465 42.8926 19.752 41.498C18.3574 40.1035 17.2507 38.4544 16.4316 36.5508C15.6126 34.625 15.2031 32.6107 15.2031 30.5078C15.2031 28.4049 15.6126 26.4017 16.4316 24.498C17.2507 22.5723 18.3574 20.9121 19.752 19.5176C21.1465 18.123 22.7956 17.0163 24.6992 16.1973C26.625 15.3783 28.6393 14.9688 30.7422 14.9688C33.3763 14.9688 35.8223 15.5885 38.0801 16.8281C40.3379 18.0456 42.1751 19.7057 43.5918 21.8086ZM47.543 19.0859L45.5508 20.3809C43.9128 17.9902 41.7878 16.0977 39.1758 14.7031C36.5859 13.2865 33.7747 12.5781 30.7422 12.5781C27.4883 12.5781 24.4889 13.3861 21.7441 15.002C18.9993 16.5957 16.819 18.765 15.2031 21.5098C13.6094 24.2546 12.8125 27.2539 12.8125 30.5078C12.8125 33.7617 13.6094 36.7611 15.2031 39.5059C16.819 42.2507 18.9993 44.431 21.7441 46.0469C24.4889 47.6406 27.4883 48.4375 30.7422 48.4375C33.7747 48.4375 36.597 47.7292 39.209 46.3125C41.821 44.8958 43.946 42.9811 45.584 40.5684L47.543 41.9297C45.6836 44.6745 43.2708 46.8438 40.3047 48.4375C37.3607 50.0312 34.1732 50.8281 30.7422 50.8281C27.0677 50.8281 23.6699 49.9206 20.5488 48.1055C17.4277 46.2904 14.9596 43.8223 13.1445 40.7012C11.3294 37.5801 10.4219 34.1823 10.4219 30.5078C10.4219 26.8333 11.3294 23.4355 13.1445 20.3145C14.9596 17.1934 17.4277 14.7253 20.5488 12.9102C23.6699 11.0951 27.0677 10.1875 30.7422 10.1875C34.1732 10.1875 37.3607 10.9844 40.3047 12.5781C43.2708 14.1719 45.6836 16.3411 47.543 19.0859ZM51.5273 16.4297L49.5352 17.7246C47.4544 14.6699 44.7539 12.2572 41.4336 10.4863C38.1354 8.69336 34.5716 7.79688 30.7422 7.79688C27.6654 7.79688 24.7214 8.39453 21.9102 9.58984C19.099 10.7852 16.6751 12.401 14.6387 14.4375C12.6243 16.4518 11.0195 18.8646 9.82422 21.6758C8.62891 24.487 8.03125 27.431 8.03125 30.5078C8.03125 33.5846 8.62891 36.5286 9.82422 39.3398C11.0195 42.151 12.6243 44.5749 14.6387 46.6113C16.6751 48.6257 19.099 50.2305 21.9102 51.4258C24.7214 52.6211 27.6654 53.2188 30.7422 53.2188C34.5938 53.2188 38.1686 52.3223 41.4668 50.5293C44.765 48.7363 47.4544 46.3125 49.5352 43.2578L51.4609 44.6855C49.1589 48.0501 46.1816 50.7174 42.5293 52.6875C38.8991 54.6354 34.9701 55.6094 30.7422 55.6094C26.2044 55.6094 22.0098 54.4915 18.1582 52.2559C14.3066 49.998 11.252 46.9434 8.99414 43.0918C6.75846 39.2402 5.64062 35.0456 5.64062 30.5078C5.64062 25.9701 6.75846 21.7754 8.99414 17.9238C11.252 14.0723 14.3066 11.0286 18.1582 8.79297C22.0098 6.53516 26.2044 5.40625 30.7422 5.40625C34.9922 5.40625 38.9434 6.40234 42.5957 8.39453C46.248 10.3646 49.2253 13.043 51.5273 16.4297ZM55.4453 13.707L53.4531 15.002C50.9297 11.3053 47.6647 8.38346 43.6582 6.23633C39.6738 4.08919 35.3685 3.01562 30.7422 3.01562C27.0234 3.01562 23.4596 3.74609 20.0508 5.20703C16.6641 6.64583 13.7422 8.59375 11.2852 11.0508C8.82812 13.5078 6.86914 16.4408 5.4082 19.8496C3.9694 23.2363 3.25 26.7891 3.25 30.5078C3.25 34.2266 3.9694 37.7904 5.4082 41.1992C6.86914 44.5859 8.82812 47.5078 11.2852 49.9648C13.7422 52.4219 16.6641 54.3809 20.0508 55.8418C23.4596 57.2806 27.0234 58 30.7422 58C35.3685 58 39.6849 56.9154 43.6914 54.7461C47.6979 52.5768 50.9629 49.6439 53.4863 45.9473L55.4121 47.4082C52.6673 51.3926 49.1257 54.5579 44.7871 56.9043C40.4486 59.2285 35.7669 60.3906 30.7422 60.3906C26.6914 60.3906 22.8177 59.5938 19.1211 58C15.4466 56.4284 12.2702 54.3145 9.5918 51.6582C6.93555 48.9798 4.81055 45.8034 3.2168 42.1289C1.64518 38.4323 0.859375 34.5586 0.859375 30.5078C0.859375 26.457 1.64518 22.5944 3.2168 18.9199C4.81055 15.2233 6.93555 12.0469 9.5918 9.39062C12.2702 6.71224 15.4466 4.58724 19.1211 3.01562C22.8177 1.42188 26.6914 0.625 30.7422 0.625C35.7891 0.625 40.4818 1.79818 44.8203 4.14453C49.1589 6.49089 52.7005 9.67839 55.4453 13.707Z" fill="white"/>
</g>
<defs>
<clipPath id="clip0_3_100">
<rect width="310" height="62" fill="white"/>
</clipPath>
</defs>
</svg>
